<svg xmlns="http://www.w3.org/2000/svg" width="240" height="70" viewBox="0 0 240 70" version="1.1"><path d="" stroke="none" fill="#08bcfc" fill-rule="evenodd"/><path d="M 126.414 5.739 C 124.485 7.089, 85.180 63.847, 85.766 64.433 C 86.631 65.298, 153.815 65.109, 154.352 64.240 C 154.610 63.822, 154.211 62.030, 153.466 60.257 L 152.111 57.035 126.992 56.767 L 101.874 56.500 106.092 50.500 C 108.412 47.200, 111.963 42.250, 113.983 39.500 C 116.004 36.750, 119.827 31.399, 122.480 27.609 L 127.302 20.718 131.901 37.609 L 136.500 54.500 142.250 54.800 C 145.412 54.965, 148 54.740, 147.999 54.300 C 147.998 53.860, 144.917 42.700, 141.152 29.500 L 134.306 5.500 130.903 5.239 C 129.031 5.095, 127.011 5.320, 126.414 5.739" stroke="none" fill="#04bcfc" fill-rule="evenodd"/></svg>