<?xml version="1.0" encoding="UTF-8"?>
<svg version="1.1" xmlns="http://www.w3.org/2000/svg" width="240" height="70">
<path d="M0 0 C3.3 0 6.6 0 10 0 C11.85809666 6.47596862 13.70932467 12.95384599 15.55419922 19.43359375 C16.18284456 21.63790925 16.8133675 23.84169017 17.44580078 26.04492188 C18.35422351 29.21085351 19.25588903 32.37864263 20.15625 35.546875 C20.44060913 36.53242371 20.72496826 37.51797241 21.01794434 38.53338623 C21.27821411 39.4540387 21.53848389 40.37469116 21.80664062 41.32324219 C22.03758423 42.1315448 22.26852783 42.93984741 22.50646973 43.77264404 C23 46 23 46 23 50 C24.175625 50.3403125 24.175625 50.3403125 25.375 50.6875 C28 52 28 52 29.375 54.375 C30 57 30 57 29 61 C6.23 60.67 -16.54 60.34 -40 60 C-38.24258158 55.60645395 -36.22384954 52.21869049 -33.5 48.4375 C-31.08065977 45.05583435 -28.822249 41.74764417 -27 38 C-26.4225 37.443125 -25.845 36.88625 -25.25 36.3125 C-22.65425167 33.64464755 -20.7923411 30.79922572 -18.765625 27.6875 C-16.74535019 24.61239144 -14.66096598 21.58443247 -12.5625 18.5625 C-12.1806958 18.01174805 -11.7988916 17.46099609 -11.40551758 16.89355469 C-8.39516319 12.55639793 -5.36041565 8.23660639 -2.3125 3.92578125 C-0.96382108 2.03945594 -0.96382108 2.03945594 0 0 Z M1 17 C0.09924436 18.19398484 -0.75476585 19.42325412 -1.58984375 20.6640625 C-2.12262939 21.45055176 -2.65541504 22.23704102 -3.2043457 23.04736328 C-3.77628662 23.8979834 -4.34822754 24.74860352 -4.9375 25.625 C-9.56245263 32.45552146 -14.24622785 39.22921727 -19.10327148 45.89697266 C-21.12511236 48.22643198 -21.12511236 48.22643198 -22 51 C-10.12 51 1.76 51 14 51 C13.01 50.67 12.02 50.34 11 50 C10.855625 49.071875 10.71125 48.14375 10.5625 47.1875 C10.07899889 43.99274889 10.07899889 43.99274889 9 41 C8.54348134 39.15130508 8.08797675 37.30234215 7.64160156 35.45117188 C6.11382964 29.12636942 4.50873682 23.02096837 2 17 C1.67 17 1.34 17 1 17 Z " fill="#00BEFF" transform="translate(125,5)"/>
</svg>
